AmstelvarAlpha-wght1000-cntr8.ufo
<glyph name="exclam" format="1">
  <advance width="1154"/>
  <unicode hex="0021"/>
  <outline>
    <contour>
      <point x="206" y="309" type="qcurve" smooth="yes"/>
      <point x="206" y="444"/>
      <point x="415" y="624"/>
      <point x="578" y="624" type="qcurve" smooth="yes"/>
      <point x="739" y="624"/>
      <point x="948" y="444"/>
      <point x="948" y="309" type="qcurve" smooth="yes"/>
      <point x="948" y="177"/>
      <point x="739" y="-22"/>
      <point x="578" y="-22" type="qcurve" smooth="yes"/>
      <point x="415" y="-22"/>
      <point x="206" y="177"/>
    </contour>
    <contour>
      <point x="132" y="1500" type="line"/>
      <point x="1022" y="1500" type="line"/>
      <point x="1010" y="1008" type="line"/>
      <point x="586" y="758" type="line"/>
      <point x="584" y="697" type="line"/>
      <point x="568" y="697" type="line"/>
      <point x="566" y="758" type="line"/>
      <point x="144" y="1008" type="line"/>
    </contour>
  </outline>
</glyph>
<glyph name="numbersign" format="1">
  <advance width="1624"/>
  <unicode hex="0023"/>
  <outline>
    <contour>
      <point x="20" y="126" type="line"/>
      <point x="20" y="698" type="line"/>
      <point x="1499" y="698" type="line"/>
      <point x="1499" y="126" type="line"/>
    </contour>
    <contour>
      <point x="125" y="786" type="line"/>
      <point x="125" y="1358" type="line"/>
      <point x="1604" y="1358" type="line"/>
      <point x="1604" y="786" type="line"/>
    </contour>
    <contour>
      <point x="236" y="-71" type="line"/>
      <point x="827" y="1535" type="line"/>
      <point x="838" y="1532" type="line"/>
      <point x="247" y="-74" type="line"/>
    </contour>
    <contour>
      <point x="795" y="-71" type="line"/>
      <point x="1386" y="1535" type="line"/>
      <point x="1397" y="1532" type="line"/>
      <point x="806" y="-74" type="line"/>
    </contour>
  </outline>
</glyph>
<glyph name="plus" format="1">
  <advance width="1724"/>
  <unicode hex="002B"/>
  <outline>
    <contour>
      <point x="80" y="424" type="line"/>
      <point x="80" y="840" type="line"/>
      <point x="1644" y="840" type="line"/>
      <point x="1644" y="424" type="line"/>
    </contour>
    <contour>
      <point x="533" y="0" type="line"/>
      <point x="533" y="1264" type="line"/>
      <point x="1191" y="1264" type="line"/>
      <point x="1191" y="0" type="line"/>
    </contour>
  </outline>
</glyph>
<glyph name="one" format="1">
  <advance width="1640"/>
  <unicode hex="0031"/>
  <outline>
    <contour>
      <point x="84" y="0" type="line"/>
      <point x="84" y="8" type="line"/>
      <point x="342" y="43" type="line"/>
      <point x="342" y="754" type="line"/>
      <point x="340" y="1362" type="line"/>
      <point x="82" y="1376" type="line"/>
      <point x="82" y="1384" type="line"/>
      <point x="1312" y="1523" type="line"/>
      <point x="1324" y="1508" type="line"/>
      <point x="1318" y="754" type="line"/>
      <point x="1318" y="43" type="line"/>
      <point x="1576" y="8" type="line"/>
      <point x="1576" y="0" type="line"/>
    </contour>
  </outline>
</glyph>
<glyph name="two" format="1">
  <advance width="2096"/>
  <unicode hex="0032"/>
  <outline>
    <contour>
      <point x="12" y="0" type="line"/>
      <point x="12" y="169" type="line" smooth="yes"/>
      <point x="12" y="311"/>
      <point x="286" y="592"/>
      <point x="474" y="700" type="qcurve" smooth="yes"/>
      <point x="651" y="798"/>
      <point x="842" y="994"/>
      <point x="842" y="1167" type="qcurve" smooth="yes"/>
      <point x="842" y="1325"/>
      <point x="667" y="1489"/>
      <point x="507" y="1489" type="qcurve" smooth="yes"/>
      <point x="394" y="1489"/>
      <point x="135" y="1398"/>
      <point x="43" y="1285" type="qcurve"/>
      <point x="39" y="1291" type="line"/>
      <point x="146" y="1420"/>
      <point x="508" y="1520"/>
      <point x="1061" y="1520" type="qcurve" smooth="yes"/>
      <point x="1557" y="1520"/>
      <point x="2030" y="1355"/>
      <point x="2030" y="1232" type="qcurve" smooth="yes"/>
      <point x="2030" y="1096"/>
      <point x="1648" y="934"/>
      <point x="1220" y="891" type="qcurve" smooth="yes"/>
      <point x="849" y="854"/>
      <point x="408" y="662"/>
      <point x="317" y="577" type="qcurve"/>
      <point x="317" y="566" type="line"/>
      <point x="2086" y="566" type="line"/>
      <point x="2086" y="0" type="line"/>
    </contour>
  </outline>
</glyph>
<glyph name="six" format="1">
  <advance width="2705"/>
  <unicode hex="0036"/>
  <outline>
    <contour>
      <point x="74" y="686" type="qcurve" smooth="yes"/>
      <point x="74" y="1051"/>
      <point x="988" y="1543"/>
      <point x="2273" y="1564" type="qcurve"/>
      <point x="2273" y="1555" type="line"/>
      <point x="1698" y="1555"/>
      <point x="1057" y="1015"/>
      <point x="1057" y="615" type="qcurve" smooth="yes"/>
      <point x="1057" y="368"/>
      <point x="1264" y="-19"/>
      <point x="1439" y="-19" type="qcurve" smooth="yes"/>
      <point x="1573" y="-19"/>
      <point x="1729" y="225"/>
      <point x="1729" y="467" type="qcurve" smooth="yes"/>
      <point x="1729" y="718"/>
      <point x="1586" y="947"/>
      <point x="1451" y="947" type="qcurve" smooth="yes"/>
      <point x="1390" y="947"/>
      <point x="1249" y="894"/>
      <point x="1208" y="866" type="qcurve"/>
      <point x="1203" y="875" type="line"/>
      <point x="1291" y="928"/>
      <point x="1515" y="980"/>
      <point x="1764" y="980" type="qcurve" smooth="yes"/>
      <point x="2151" y="980"/>
      <point x="2645" y="707"/>
      <point x="2645" y="487" type="qcurve" smooth="yes"/>
      <point x="2645" y="255"/>
      <point x="2104" y="-27"/>
      <point x="1440" y="-27" type="qcurve" smooth="yes"/>
      <point x="737" y="-27"/>
      <point x="74" y="360"/>
    </contour>
  </outline>
</glyph>
<glyph name="D" format="1">
  <advance width="3233"/>
  <unicode hex="0044"/>
  <outline>
    <contour>
      <point x="82" y="0" type="line"/>
      <point x="82" y="8" type="line"/>
      <point x="290" y="48" type="line"/>
      <point x="292" y="757" type="line"/>
      <point x="290" y="1452" type="line"/>
      <point x="82" y="1490" type="line"/>
      <point x="82" y="1500" type="line"/>
      <point x="2092" y="1500" type="line" smooth="yes"/>
      <point x="2578" y="1500"/>
      <point x="3153" y="1119"/>
      <point x="3153" y="800" type="qcurve" smooth="yes"/>
      <point x="3153" y="410"/>
      <point x="2517" y="0"/>
      <point x="1942" y="0" type="qcurve" smooth="yes"/>
    </contour>
    <contour>
      <point x="1292" y="36" type="line"/>
      <point x="1327" y="29"/>
      <point x="1474" y="14"/>
      <point x="1549" y="14" type="qcurve" smooth="yes"/>
      <point x="1817" y="14"/>
      <point x="2138" y="429"/>
      <point x="2141" y="761" type="qcurve" smooth="yes"/>
      <point x="2144" y="1068"/>
      <point x="1778" y="1491"/>
      <point x="1529" y="1492" type="qcurve" smooth="yes"/>
      <point x="1462" y="1492"/>
      <point x="1327" y="1480"/>
      <point x="1292" y="1474" type="qcurve"/>
      <point x="1290" y="757" type="line"/>
    </contour>
  </outline>
</glyph>
<glyph name="F" format="1">
  <advance width="2106"/>
  <unicode hex="0046"/>
  <outline>
    <contour>
      <point x="82" y="0" type="line"/>
      <point x="82" y="8" type="line"/>
      <point x="290" y="45" type="line"/>
      <point x="292" y="760" type="line"/>
      <point x="290" y="1456" type="line"/>
      <point x="82" y="1490" type="line"/>
      <point x="82" y="1500" type="line"/>
      <point x="2066" y="1500" type="line"/>
      <point x="2066" y="1142" type="line"/>
      <point x="2058" y="1142" type="line"/>
      <point x="1961" y="1490" type="line"/>
      <point x="1379" y="1490" type="line"/>
      <point x="1310" y="1470" type="line"/>
      <point x="1308" y="760" type="line"/>
      <point x="1310" y="40" type="line"/>
      <point x="1538" y="8" type="line"/>
      <point x="1538" y="0" type="line"/>
    </contour>
    <contour>
      <point x="820" y="779" type="line"/>
      <point x="820" y="791" type="line"/>
      <point x="1805" y="798" type="line"/>
      <point x="1892" y="988" type="line"/>
      <point x="1900" y="988" type="line"/>
      <point x="1900" y="522" type="line"/>
      <point x="1892" y="522" type="line"/>
      <point x="1805" y="772" type="line"/>
    </contour>
  </outline>
</glyph>
<glyph name="N" format="1">
  <advance width="2510"/>
  <unicode hex="004E"/>
  <outline>
    <contour>
      <point x="82" y="0" type="line"/>
      <point x="82" y="8" type="line"/>
      <point x="320" y="43" type="line"/>
      <point x="322" y="754" type="line"/>
      <point x="320" y="1456" type="line"/>
      <point x="82" y="1490" type="line"/>
      <point x="82" y="1500" type="line"/>
      <point x="1408" y="1500" type="line"/>
      <point x="1795" y="825" type="line"/>
      <point x="2184" y="176" type="line"/>
      <point x="2176" y="751" type="line"/>
      <point x="2170" y="1456" type="line"/>
      <point x="1882" y="1490" type="line"/>
      <point x="1882" y="1500" type="line"/>
      <point x="2438" y="1500" type="line"/>
      <point x="2438" y="1490" type="line"/>
      <point x="2190" y="1456" type="line"/>
      <point x="2188" y="754" type="line"/>
      <point x="2194" y="0" type="line"/>
      <point x="1192" y="0" type="line"/>
      <point x="752" y="747" type="line"/>
      <point x="334" y="1453" type="line"/>
      <point x="332" y="752" type="line"/>
      <point x="340" y="43" type="line"/>
      <point x="628" y="8" type="line"/>
      <point x="628" y="0" type="line"/>
    </contour>
  </outline>
</glyph>
<glyph name="O" format="1">
  <advance width="3463"/>
  <unicode hex="004F"/>
  <outline>
    <contour>
      <point x="80" y="737" type="qcurve" smooth="yes"/>
      <point x="80" y="1068"/>
      <point x="891" y="1520"/>
      <point x="1732" y="1520" type="qcurve" smooth="yes"/>
      <point x="2572" y="1520"/>
      <point x="3383" y="1097"/>
      <point x="3383" y="752" type="qcurve" smooth="yes"/>
      <point x="3383" y="423"/>
      <point x="2580" y="-31"/>
      <point x="1740" y="-31" type="qcurve" smooth="yes"/>
      <point x="918" y="-31"/>
      <point x="80" y="396"/>
    </contour>
    <contour>
      <point x="1171" y="781" type="qcurve" smooth="yes"/>
      <point x="1171" y="430"/>
      <point x="1460" y="-22"/>
      <point x="1734" y="-22" type="qcurve" smooth="yes"/>
      <point x="2014" y="-22"/>
      <point x="2293" y="380"/>
      <point x="2293" y="750" type="qcurve" smooth="yes"/>
      <point x="2293" y="1080"/>
      <point x="1987" y="1512"/>
      <point x="1734" y="1512" type="qcurve" smooth="yes"/>
      <point x="1461" y="1512"/>
      <point x="1171" y="1119"/>
    </contour>
  </outline>
</glyph>
<glyph name="R" format="1">
  <advance width="3074"/>
  <unicode hex="0052"/>
  <outline>
    <contour>
      <point x="82" y="0" type="line"/>
      <point x="82" y="8" type="line"/>
      <point x="290" y="44" type="line"/>
      <point x="292" y="754" type="line"/>
      <point x="290" y="1456" type="line"/>
      <point x="82" y="1490" type="line"/>
      <point x="82" y="1500" type="line"/>
      <point x="2188" y="1500" type="line" smooth="yes"/>
      <point x="2492" y="1500"/>
      <point x="2785" y="1327"/>
      <point x="2785" y="1173" type="qcurve" smooth="yes"/>
      <point x="2785" y="1003"/>
      <point x="2426" y="790"/>
      <point x="2185" y="791" type="qcurve" smooth="yes"/>
      <point x="2087" y="791"/>
      <point x="835" y="796"/>
      <point x="780" y="796" type="qcurve"/>
      <point x="780" y="804" type="line"/>
      <point x="1317" y="804" type="line"/>
      <point x="1468" y="804" type="line" smooth="yes"/>
      <point x="1624" y="804"/>
      <point x="1766" y="1009"/>
      <point x="1766" y="1178" type="qcurve" smooth="yes"/>
      <point x="1766" y="1325"/>
      <point x="1643" y="1490"/>
      <point x="1506" y="1490" type="qcurve" smooth="yes"/>
      <point x="1323" y="1490" type="line"/>
      <point x="1294" y="1467" type="line"/>
      <point x="1290" y="754" type="line"/>
      <point x="1292" y="44" type="line"/>
      <point x="1508" y="8" type="line"/>
      <point x="1508" y="0" type="line"/>
    </contour>
    <contour>
      <point x="1428" y="798" type="line"/>
      <point x="2426" y="798" type="line"/>
      <point x="2803" y="315" type="line" smooth="yes"/>
      <point x="2909" y="179"/>
      <point x="3043" y="9"/>
      <point x="3100" y="8" type="qcurve"/>
      <point x="3100" y="0" type="line"/>
      <point x="1973" y="0" type="line"/>
      <point x="1958" y="13" type="line"/>
    </contour>
  </outline>
</glyph>
<glyph name="W" format="1">
  <advance width="3862"/>
  <unicode hex="0057"/>
  <outline>
    <contour>
      <point x="-64" y="1490" type="line"/>
      <point x="-64" y="1500" type="line"/>
      <point x="1260" y="1500" type="line"/>
      <point x="1260" y="1490" type="line"/>
      <point x="1072" y="1449" type="line"/>
      <point x="1322" y="811" type="line"/>
      <point x="1607" y="110" type="line"/>
      <point x="1799" y="609" type="line"/>
      <point x="1997" y="1130" type="line"/>
      <point x="2001" y="1123" type="line"/>
      <point x="1806" y="606" type="line"/>
      <point x="1579" y="0" type="line"/>
      <point x="714" y="0" type="line"/>
      <point x="456" y="618" type="line"/>
      <point x="104" y="1451" type="line"/>
    </contour>
    <contour>
      <point x="1534.0" y="1498.0" type="line"/>
      <point x="1534.0" y="1500.0" type="line"/>
      <point x="2798.0" y="1500.0" type="line"/>
      <point x="2798.0" y="1498.0" type="line"/>
      <point x="2630.0" y="1457.0" type="line"/>
      <point x="2865.0" y="841.0" type="line"/>
      <point x="3160.0" y="110.0" type="line"/>
      <point x="3418" y="789" type="line"/>
      <point x="3667.0" y="1450.0" type="line"/>
      <point x="3410.0" y="1490.0" type="line"/>
      <point x="3410.0" y="1500.0" type="line"/>
      <point x="3946.0" y="1500.0" type="line"/>
      <point x="3946.0" y="1490.0" type="line"/>
      <point x="3677.0" y="1450.0" type="line"/>
      <point x="3426" y="786" type="line"/>
      <point x="3131.0" y="0.0" type="line"/>
      <point x="2299.0" y="0.0" type="line"/>
      <point x="2090.0" y="523.0" type="line"/>
      <point x="1702.0" y="1459.0" type="line"/>
    </contour>
  </outline>
</glyph>
<glyph name="Y" format="1">
  <advance width="2416"/>
  <unicode hex="0059"/>
  <outline>
    <contour>
      <point x="-90.0" y="1490.0" type="line"/>
      <point x="-90.0" y="1500.0" type="line"/>
      <point x="1337.0" y="1500.0" type="line"/>
      <point x="1337.0" y="1490.0" type="line"/>
      <point x="1180.0" y="1455.0" type="line"/>
      <point x="1455.0" y="1045.0" type="line"/>
      <point x="1705.0" y="704.0" type="line"/>
      <point x="1941.0" y="1060.0" type="line"/>
      <point x="2209.0" y="1463.0" type="line"/>
      <point x="1956.0" y="1490.0" type="line"/>
      <point x="1956.0" y="1500.0" type="line"/>
      <point x="2465.0" y="1500.0" type="line"/>
      <point x="2465.0" y="1490.0" type="line"/>
      <point x="2222.0" y="1463.0" type="line"/>
      <point x="1949.0" y="1055.0" type="line"/>
      <point x="1712.0" y="701.0" type="line"/>
      <point x="1714.0" y="43.0" type="line"/>
      <point x="1932.0" y="8.0" type="line"/>
      <point x="1932.0" y="0.0" type="line"/>
      <point x="484.0" y="0.0" type="line"/>
      <point x="484.0" y="8.0" type="line"/>
      <point x="705.0" y="43.0" type="line"/>
      <point x="707.0" y="647.0" type="line"/>
      <point x="447.0" y="984.0" type="line"/>
      <point x="72.0" y="1464.0" type="line"/>
    </contour>
  </outline>
</glyph>
<glyph name="bracketleft" format="1">
  <advance width="1246"/>
  <unicode hex="005B"/>
  <outline>
    <contour>
      <point x="165" y="508" type="line"/>
      <point x="160" y="1480" type="line"/>
      <point x="150" y="1492" type="line"/>
      <point x="150" y="1500" type="line"/>
      <point x="1202" y="1500" type="line"/>
      <point x="1202" y="1492" type="line"/>
      <point x="915" y="1480" type="line"/>
      <point x="915" y="508" type="line"/>
      <point x="915" y="-460" type="line"/>
      <point x="1202" y="-472" type="line"/>
      <point x="1202" y="-480" type="line"/>
      <point x="150" y="-480" type="line"/>
      <point x="150" y="-472" type="line"/>
      <point x="160" y="-460" type="line"/>
    </contour>
  </outline>
</glyph>
<glyph name="bracketright" format="1">
  <advance width="1246"/>
  <unicode hex="005D"/>
  <outline>
    <contour>
      <point x="1081" y="508" type="line"/>
      <point x="1086" y="-460" type="line"/>
      <point x="1096" y="-472" type="line"/>
      <point x="1096" y="-480" type="line"/>
      <point x="44" y="-480" type="line"/>
      <point x="44" y="-472" type="line"/>
      <point x="331" y="-460" type="line"/>
      <point x="331" y="508" type="line"/>
      <point x="331" y="1480" type="line"/>
      <point x="44" y="1492" type="line"/>
      <point x="44" y="1500" type="line"/>
      <point x="1096" y="1500" type="line"/>
      <point x="1096" y="1492" type="line"/>
      <point x="1086" y="1480" type="line"/>
    </contour>
  </outline>
</glyph>
<glyph name="grave" format="1">
  <advance width="1024"/>
  <unicode hex="0060"/>
  <outline>
    <contour>
      <point x="140" y="1357" type="qcurve" smooth="yes"/>
      <point x="140" y="1420"/>
      <point x="241" y="1500"/>
      <point x="324" y="1500" type="qcurve" smooth="yes"/>
      <point x="412" y="1500"/>
      <point x="522" y="1421"/>
      <point x="593" y="1327" type="qcurve" smooth="yes"/>
      <point x="792" y="1060" type="line"/>
      <point x="550" y="1060" type="line"/>
      <point x="316" y="1178" type="line" smooth="yes"/>
      <point x="224" y="1225"/>
      <point x="140" y="1295"/>
    </contour>
  </outline>
</glyph>
<glyph name="b" format="1">
  <advance width="2779"/>
  <unicode hex="0062"/>
  <outline>
    <contour>
      <point x="0" y="1492" type="line"/>
      <point x="0" y="1500" type="line"/>
      <point x="1123" y="1534" type="line"/>
      <point x="1134" y="1532" type="line"/>
      <point x="1152" y="1502" type="line"/>
      <point x="1149" y="428" type="line"/>
      <point x="1151" y="104" type="line"/>
      <point x="991" y="0" type="line"/>
      <point x="167" y="0" type="line"/>
      <point x="178" y="427" type="line"/>
      <point x="167" y="1462" type="line"/>
    </contour>
    <contour>
      <point x="1142" y="100" type="qcurve"/>
      <point x="1151" y="104" type="line"/>
      <point x="1184" y="57"/>
      <point x="1330" y="4"/>
      <point x="1414" y="4" type="qcurve" smooth="yes"/>
      <point x="1584" y="4"/>
      <point x="1721" y="277"/>
      <point x="1721" y="520" type="qcurve" smooth="yes"/>
      <point x="1721" y="772"/>
      <point x="1567" y="985"/>
      <point x="1447" y="985" type="qcurve" smooth="yes"/>
      <point x="1370" y="985"/>
      <point x="1186" y="909"/>
      <point x="1136" y="869" type="qcurve"/>
      <point x="1132" y="875" type="line"/>
      <point x="1224" y="943"/>
      <point x="1480" y="1020"/>
      <point x="1827" y="1020" type="qcurve" smooth="yes"/>
      <point x="2208" y="1020"/>
      <point x="2711" y="754"/>
      <point x="2711" y="530" type="qcurve" smooth="yes"/>
      <point x="2711" y="286"/>
      <point x="2201" y="-15"/>
      <point x="1709" y="-15" type="qcurve" smooth="yes"/>
      <point x="1414" y="-15"/>
      <point x="1192" y="31"/>
    </contour>
  </outline>
</glyph>
<glyph name="d" format="1">
  <advance width="2817"/>
  <unicode hex="0064"/>
  <outline>
    <contour>
      <point x="68" y="478" type="qcurve" smooth="yes"/>
      <point x="68" y="722"/>
      <point x="576" y="1020"/>
      <point x="996" y="1020" type="qcurve" smooth="yes"/>
      <point x="1300" y="1020"/>
      <point x="1564" y="969"/>
      <point x="1630" y="889" type="qcurve"/>
      <point x="1628" y="871" type="line"/>
      <point x="1588" y="925"/>
      <point x="1452" y="991"/>
      <point x="1370" y="991" type="qcurve" smooth="yes"/>
      <point x="1198" y="991"/>
      <point x="1050" y="713"/>
      <point x="1050" y="496" type="qcurve" smooth="yes"/>
      <point x="1050" y="268"/>
      <point x="1210" y="31"/>
      <point x="1339" y="31" type="qcurve" smooth="yes"/>
      <point x="1441" y="31"/>
      <point x="1589" y="134"/>
      <point x="1632" y="209" type="qcurve"/>
      <point x="1640" y="200" type="line"/>
      <point x="1541" y="48"/>
      <point x="1229" y="-9"/>
      <point x="934" y="-9" type="qcurve" smooth="yes"/>
      <point x="582" y="-9"/>
      <point x="68" y="254"/>
    </contour>
    <contour>
      <point x="1438" y="1492" type="line"/>
      <point x="1438" y="1500" type="line"/>
      <point x="2591" y="1534" type="line"/>
      <point x="2598" y="1533" type="line"/>
      <point x="2612" y="1501" type="line"/>
      <point x="2609" y="428" type="line"/>
      <point x="2618" y="43" type="line"/>
      <point x="2767" y="8" type="line"/>
      <point x="2767" y="0" type="line"/>
      <point x="1672" y="0" type="line"/>
      <point x="1651" y="20" type="line"/>
      <point x="1631" y="162" type="line"/>
      <point x="1631" y="427" type="line"/>
      <point x="1622" y="1462" type="line"/>
    </contour>
  </outline>
</glyph>
<glyph name="f" format="1">
  <advance width="1497"/>
  <unicode hex="0066"/>
  <outline>
    <contour>
      <point x="54" y="0" type="line"/>
      <point x="54" y="8" type="line"/>
      <point x="222" y="43" type="line"/>
      <point x="228" y="527" type="line"/>
      <point x="228" y="920" type="line"/>
      <point x="64" y="952" type="line"/>
      <point x="64" y="966" type="line"/>
      <point x="229" y="974" type="line"/>
      <point x="227" y="1046" type="line" smooth="yes"/>
      <point x="224" y="1230"/>
      <point x="505" y="1532"/>
      <point x="796" y="1532" type="qcurve" smooth="yes"/>
      <point x="1457" y="1500" type="line"/>
      <point x="1457" y="1492" type="line"/>
      <point x="1215" y="1482" type="line"/>
      <point x="1213" y="527" type="line"/>
      <point x="1217" y="43" type="line"/>
      <point x="1440" y="8" type="line"/>
      <point x="1440" y="0" type="line"/>
    </contour>
    <contour>
      <point x="1197" y="952" type="line"/>
      <point x="1201" y="974" type="line"/>
      <point x="1440" y="974" type="line"/>
      <point x="1440" y="952" type="line"/>
    </contour>
  </outline>
</glyph>
<glyph name="r" format="1">
  <advance width="1773"/>
  <unicode hex="0072"/>
  <outline>
    <contour>
      <point x="76" y="0" type="line"/>
      <point x="76" y="8" type="line"/>
      <point x="224" y="43" type="line"/>
      <point x="226" y="527" type="line"/>
      <point x="224" y="922" type="line"/>
      <point x="76" y="958" type="line"/>
      <point x="76" y="966" type="line"/>
      <point x="1184" y="1000" type="line"/>
      <point x="1199" y="993" type="line"/>
      <point x="1202" y="872" type="line"/>
      <point x="1202" y="527" type="line"/>
      <point x="1204" y="43" type="line"/>
      <point x="1362" y="8" type="line"/>
      <point x="1362" y="0" type="line"/>
    </contour>
    <contour>
      <point x="1198" y="714" type="qcurve"/>
      <point x="1198" y="722" type="line"/>
      <point x="1228" y="844"/>
      <point x="1490" y="1034"/>
      <point x="1679" y="1034" type="qcurve" smooth="yes"/>
      <point x="1747" y="1032" type="line"/>
      <point x="1747" y="800" type="line"/>
      <point x="1739" y="800" type="line"/>
      <point x="1625" y="997" type="line"/>
      <point x="1466" y="997"/>
      <point x="1235" y="840"/>
    </contour>
  </outline>
</glyph>
<glyph name="t" format="1">
  <advance width="1512"/>
  <unicode hex="0074"/>
  <outline>
    <contour>
      <point x="16" y="952" type="line"/>
      <point x="16" y="966" type="line"/>
      <point x="134" y="994"/>
      <point x="439" y="1239"/>
      <point x="509" y="1434" type="qcurve"/>
      <point x="1142" y="1434" type="line"/>
      <point x="1154" y="957" type="line"/>
      <point x="1177" y="527" type="line"/>
      <point x="1186" y="114" type="line"/>
      <point x="1235" y="57" type="line"/>
      <point x="1447" y="57" type="line"/>
      <point x="1447" y="49" type="line"/>
      <point x="409" y="-8" type="line"/>
      <point x="299" y="-8"/>
      <point x="200" y="82"/>
      <point x="202" y="163" type="qcurve" smooth="yes"/>
      <point x="209" y="527" type="line"/>
      <point x="209" y="940" type="line"/>
    </contour>
    <contour>
      <point x="922" y="952" type="line"/>
      <point x="926" y="964" type="line"/>
      <point x="1470" y="964" type="line"/>
      <point x="1470" y="952" type="line"/>
    </contour>
  </outline>
</glyph>
<glyph name="bar" format="1">
  <advance width="1264"/>
  <unicode hex="007C"/>
  <outline>
    <contour>
      <point x="289" y="-510" type="line"/>
      <point x="291" y="-58" type="line"/>
      <point x="294" y="250" type="line"/>
      <point x="294" y="830" type="line"/>
      <point x="291" y="1138" type="line"/>
      <point x="289" y="1510" type="line"/>
      <point x="975" y="1520" type="line"/>
      <point x="973" y="1138" type="line"/>
      <point x="970" y="830" type="line"/>
      <point x="970" y="250" type="line"/>
      <point x="973" y="-58" type="line"/>
      <point x="975" y="-500" type="line"/>
    </contour>
  </outline>
</glyph>
